
<svg xmlns="http://www.w3.org/2000/svg" width="420" height="148">
  <style>
    text {
      font-family: system-ui, -apple-system, BlinkMacSystemFont;
      fill: #333;
    }
  </style>

  <text x="20" y="18" font-size="18" font-weight="600">
    Most Used Languages
  </text>

  <rect x="20" y="32" width="279" height="10" rx="5" fill="#f1e05a" /><rect x="299" y="32" width="5" height="10" rx="5" fill="#563d7c" /><rect x="304" y="32" width="4" height="10" rx="5" fill="#f7931e" /><rect x="308" y="32" width="3" height="10" rx="5" fill="#3572A5" /><rect x="311" y="32" width="3" height="10" rx="5" fill="#e34c26" /><rect x="314" y="32" width="2" height="10" rx="5" fill="#DA5B0B" /><rect x="316" y="32" width="2" height="10" rx="5" fill="#a91e50" />
  
      <circle cx="20" cy="52" r="4" fill="#f1e05a" />
      <text x="30" y="56" font-size="12">
        JavaScript 93.10%
      </text>
    
      <circle cx="220" cy="52" r="4" fill="#563d7c" />
      <text x="230" y="56" font-size="12">
        CSS 1.80%
      </text>
    
      <circle cx="20" cy="72" r="4" fill="#f7931e" />
      <text x="30" y="76" font-size="12">
        Handlebars 1.28%
      </text>
    
      <circle cx="220" cy="72" r="4" fill="#3572A5" />
      <text x="230" y="76" font-size="12">
        Python 1.04%
      </text>
    
      <circle cx="20" cy="92" r="4" fill="#e34c26" />
      <text x="30" y="96" font-size="12">
        HTML 0.87%
      </text>
    
      <circle cx="220" cy="92" r="4" fill="#DA5B0B" />
      <text x="230" y="96" font-size="12">
        Jupyter Notebook 0.78%
      </text>
    
      <circle cx="20" cy="112" r="4" fill="#a91e50" />
      <text x="30" y="116" font-size="12">
        EJS 0.35%
      </text>
    
</svg>
